<?xml version="1.0" encoding="UTF-8" standalone="no"?>
<!-- Created with Inkscape (http://www.inkscape.org/) -->

<svg
   xmlns:dc="http://purl.org/dc/elements/1.1/"
   xmlns:cc="http://creativecommons.org/ns#"
   xmlns:rdf="http://www.w3.org/1999/02/22-rdf-syntax-ns#"
   xmlns:svg="http://www.w3.org/2000/svg"
   xmlns="http://www.w3.org/2000/svg"
   xmlns:sodipodi="http://sodipodi.sourceforge.net/DTD/sodipodi-0.dtd"
   xmlns:inkscape="http://www.inkscape.org/namespaces/inkscape"
   width="150"
   height="100"
   id="svg2"
   version="1.1"
   inkscape:version="0.48.4 r9939"
   sodipodi:docname="New document 1">
  <defs
     id="defs4" />
  <sodipodi:namedview
     id="base"
     pagecolor="#ffffff"
     bordercolor="#666666"
     borderopacity="1.0"
     inkscape:pageopacity="0.0"
     inkscape:pageshadow="2"
     inkscape:zoom="5.6"
     inkscape:cx="81.386173"
     inkscape:cy="43.644873"
     inkscape:document-units="px"
     inkscape:current-layer="layer1"
     showgrid="false"
     inkscape:window-width="1322"
     inkscape:window-height="959"
     inkscape:window-x="1550"
     inkscape:window-y="49"
     inkscape:window-maximized="0" />
  <metadata
     id="metadata7">
    <rdf:RDF>
      <cc:Work
         rdf:about="">
        <dc:format>image/svg+xml</dc:format>
        <dc:type
           rdf:resource="http://purl.org/dc/dcmitype/StillImage" />
        <dc:title></dc:title>
      </cc:Work>
    </rdf:RDF>
  </metadata>
  <g
     inkscape:label="Layer 1"
     inkscape:groupmode="layer"
     id="layer1"
     transform="translate(0,-952.36218)">
    <path
       style="fill:none;stroke:#000000;stroke-width:1px;stroke-linecap:butt;stroke-linejoin:miter;stroke-opacity:1"
       d="M 29.438497,1033.3715 C 21.04899,1048.9604 7.9986522,1043.99 7.9986522,1043.99 c 0,0 11.6913968,-5.2545 12.8566058,-12.9359 -13.2833808,-5.6481 -16.2432918,-14.2915 -13.5557318,-27.7305 2.68756,-13.43914 22.1099148,-15.90814 46.1242908,-11.93754 24.014357,3.9705 33.067157,32.45344 15.631766,41.75964 -17.435365,9.306 -39.617086,0.2258 -39.617086,0.2258 z"
       id="path2989"
       inkscape:connector-curvature="0"
       sodipodi:nodetypes="ccczzzc" />
    <path
       style="fill:none;stroke:#000000;stroke-width:1px;stroke-linecap:butt;stroke-linejoin:miter;stroke-opacity:1"
       d="m 85.53572,1046.4695 c 0.20864,-15.9779 22.11585,-11.078 21.90721,-20.6646 -0.20864,-9.5867 0,-7.2434 0,-7.2434 0,0 -8.3456,-1.9173 -9.80608,-11.504 -3.67466,0.6221 -4.59822,-7.34464 -0.63422,-8.71244 1.72042,-12.0446 8.53089,-18.988 15.44767,-19.1956 6.68093,-0.2006 15.82083,2.7539 18.9635,18.4638 3.83266,-0.1363 2.83939,8.05954 -0.39453,7.73994 -1.0432,12.5692 -7.92833,13.6344 -7.92833,13.6344 0,0 -0.0709,1.5975 0.41728,7.6694 0.4882,6.0719 22.72297,2.2082 22.74179,19.5994 z"
       id="path2991"
       inkscape:connector-curvature="0"
       sodipodi:nodetypes="cscccsccczcc" />
    <path
       style="fill:#000000;stroke:none"
       d="m 68.620536,952.13897 a 3.0003,3.0003 0 0 0 -0.375,0.0312 3.0003,3.0003 0 0 0 -2.6875,3.03125 l 0,0.375 -21.90625,2 a 3.0003,3.0003 0 1 0 0.5625,5.96875 l 21.3125,-1.9375 0,1.40625 -20.71875,1.65625 -0.34375,0 0.21875,23.40625 20.75,2.40625 0,3 a 3.0003,3.0003 0 0 0 -1.0625,0.78125 l -9.28125,10.37503 a 3.0003,3.0003 0 1 0 4.46875,4 l 5.84375,-6.5 0,0.375 a 3.0010171,3.0010171 0 0 0 6,0.1562 l 9.78125,12.75 a 3.0095216,3.0095216 0 1 0 4.78125,-3.6562 l -13.0625,-16.96878 a 3.0003,3.0003 0 0 0 -1.46875,-1.03125 l 0,-2.59375 22.6875,2.625 -0.0625,-33.03125 -22.53125,1.78125 0,-1.5 25.34375,-2.3125 a 3.0040663,3.0040663 0 1 0 -0.3125,-6 3.0003,3.0003 0 0 0 -0.21875,0.0312 l -24.78125,2.25 a 3.0003,3.0003 0 0 0 -2.9375,-2.875 z"
       id="path3006"
       inkscape:connector-curvature="0" />
  </g>
</svg>
